REM MD5 c7ded1f8115c3e6a725315175125bcaf
FILE "SuperLite 1500 Series - Battle Sugoroku the Hunter - A.R.0062 (Japan).bin" BINARY
  TRACK 01 MODE2/2352
    INDEX 01 00:00:00
  TRACK 02 AUDIO
    INDEX 00 00:54:15
    INDEX 01 00:56:15
  TRACK 03 AUDIO
    INDEX 00 02:27:60
    INDEX 01 02:29:60
  TRACK 04 AUDIO
    INDEX 00 03:57:38
    INDEX 01 03:59:38
  TRACK 05 AUDIO
    INDEX 00 05:27:16
    INDEX 01 05:29:16
REM LEADOUT 08:05:72
